<svg width="18" height="20" viewBox="0 0 18 20" fill="none" xmlns="http://www.w3.org/2000/svg">
<path d="M17.5 18.75C17.5 19.0815 17.3683 19.3995 17.1339 19.6339C16.8995 19.8683 16.5815 20 16.25 20H1.25C0.91848 20 0.600537 19.8683 0.366117 19.6339C0.131696 19.3995 0 19.0815 0 18.75C0 16.7609 0.790176 14.8532 2.1967 13.4467C3.60322 12.0402 5.51088 11.25 7.5 11.25H10C11.9891 11.25 13.8968 12.0402 15.3033 13.4467C16.7098 14.8532 17.5 16.7609 17.5 18.75ZM8.75 0C7.76109 0 6.7944 0.293245 5.97215 0.842652C5.1499 1.39206 4.50904 2.17295 4.1306 3.08658C3.75216 4.00021 3.65315 5.00555 3.84607 5.97545C4.039 6.94536 4.5152 7.83627 5.21447 8.53553C5.91373 9.2348 6.80464 9.711 7.77455 9.90393C8.74445 10.0969 9.74979 9.99784 10.6634 9.6194C11.577 9.24096 12.3579 8.6001 12.9073 7.77785C13.4568 6.9556 13.75 5.98891 13.75 5C13.75 3.67392 13.2232 2.40215 12.2855 1.46447C11.3479 0.526784 10.0761 0 8.75 0Z" fill="#9197BA"/>
</svg>
