<svg width="21" height="21" viewBox="0 0 21 21" fill="none" xmlns="http://www.w3.org/2000/svg">
<g clip-path="url(#clip0_1092_3681)">
<path d="M14.0624 12.2661L11.2738 10.1747V5.91444C11.2738 5.48608 10.9276 5.13983 10.4992 5.13983C10.0709 5.13983 9.72461 5.48608 9.72461 5.91444V10.562C9.72461 10.806 9.83926 11.0361 10.0345 11.1817L13.1328 13.5055C13.2722 13.6101 13.4349 13.6604 13.5968 13.6604C13.833 13.6604 14.0654 13.5543 14.2173 13.3498C14.4745 13.0082 14.4048 12.5225 14.0624 12.2661Z" fill="#9197BA"/>
<path d="M10.5 0.5C4.98566 0.5 0.5 4.98566 0.5 10.5C0.5 16.0143 4.98566 20.5 10.5 20.5C16.0143 20.5 20.5 16.0143 20.5 10.5C20.5 4.98566 16.0143 0.5 10.5 0.5ZM10.5 18.9508C5.84082 18.9508 2.04918 15.1592 2.04918 10.5C2.04918 5.84082 5.84082 2.04918 10.5 2.04918C15.16 2.04918 18.9508 5.84082 18.9508 10.5C18.9508 15.1592 15.1592 18.9508 10.5 18.9508Z" fill="#9197BA"/>
</g>
<defs>
<clipPath id="clip0_1092_3681">
<rect width="20" height="20" fill="white" transform="translate(0.5 0.5)"/>
</clipPath>
</defs>
</svg>
