<svg width="20" height="20" viewBox="0 0 20 20" fill="none" xmlns="http://www.w3.org/2000/svg">
<path fill-rule="evenodd" clip-rule="evenodd" d="M15.4297 5.07812C15.1061 5.07812 14.8438 4.81578 14.8438 4.49219V0H6.44531C5.47605 0 4.6875 0.788555 4.6875 1.75781V8.30816C4.88055 8.29066 5.0759 8.28125 5.27344 8.28125C7.27063 8.28125 9.05848 9.19438 10.2416 10.625H16.6016C16.9252 10.625 17.1875 10.8873 17.1875 11.2109C17.1875 11.5345 16.9252 11.7969 16.6016 11.7969H11.0136C11.3798 12.5116 11.616 13.3033 11.6918 14.1406H16.6016C16.9252 14.1406 17.1875 14.403 17.1875 14.7266C17.1875 15.0502 16.9252 15.3125 16.6016 15.3125H11.6918C11.5166 17.2476 10.4827 18.9385 8.97492 20H18.1641C19.1333 20 19.9219 19.2114 19.9219 18.2422V5.07812H15.4297ZM16.6016 8.28125H8.00781C7.68422 8.28125 7.42188 8.01891 7.42188 7.69531C7.42188 7.37172 7.68422 7.10938 8.00781 7.10938H16.6016C16.9252 7.10938 17.1875 7.37172 17.1875 7.69531C17.1875 8.01891 16.9252 8.28125 16.6016 8.28125ZM16.0156 0.343129V3.90633H19.5786L16.0156 0.343129ZM0 14.7266C0 11.8188 2.36566 9.45312 5.27344 9.45312C8.18121 9.45312 10.5469 11.8188 10.5469 14.7266C10.5469 17.6343 8.18121 20 5.27344 20C2.36566 20 0 17.6343 0 14.7266ZM5.27344 15.3125H6.83594C7.15953 15.3125 7.42188 15.0502 7.42188 14.7266C7.42188 14.403 7.15953 14.1406 6.83594 14.1406H5.85938V12.3828C5.85938 12.0592 5.59703 11.7969 5.27344 11.7969C4.94984 11.7969 4.6875 12.0592 4.6875 12.3828V14.7266C4.6875 15.0502 4.94984 15.3125 5.27344 15.3125Z" fill="url(#paint0_linear_549_3772)"/>
<defs>
<linearGradient id="paint0_linear_549_3772" x1="2.14468" y1="17.4545" x2="15.0359" y2="21.7404" gradientUnits="userSpaceOnUse">
<stop stop-color="#00CC83"/>
<stop offset="1" stop-color="#36DBFF"/>
</linearGradient>
</defs>
</svg>
