<svg width="20" height="19" viewBox="0 0 20 19" fill="none" xmlns="http://www.w3.org/2000/svg">
<mask id="path-1-inside-1_549_3759" fill="white">
<path fill-rule="evenodd" clip-rule="evenodd" d="M5.5 2C5.5 0.89543 6.39543 0 7.5 0H12.5C13.6046 0 14.5 0.895431 14.5 2V7C14.5 8.10457 13.6046 9 12.5 9H7.5C6.39543 9 5.5 8.10457 5.5 7V2ZM0 12C0 10.8954 0.895431 10 2 10H7C8.10457 10 9 10.8954 9 12V17C9 18.1046 8.10457 19 7 19H2C0.89543 19 0 18.1046 0 17V12ZM13 10C11.8954 10 11 10.8954 11 12V17C11 18.1046 11.8954 19 13 19H18C19.1046 19 20 18.1046 20 17V12C20 10.8954 19.1046 10 18 10H13Z"/>
</mask>
<path fill-rule="evenodd" clip-rule="evenodd" d="M5.5 2C5.5 0.89543 6.39543 0 7.5 0H12.5C13.6046 0 14.5 0.895431 14.5 2V7C14.5 8.10457 13.6046 9 12.5 9H7.5C6.39543 9 5.5 8.10457 5.5 7V2ZM0 12C0 10.8954 0.895431 10 2 10H7C8.10457 10 9 10.8954 9 12V17C9 18.1046 8.10457 19 7 19H2C0.89543 19 0 18.1046 0 17V12ZM13 10C11.8954 10 11 10.8954 11 12V17C11 18.1046 11.8954 19 13 19H18C19.1046 19 20 18.1046 20 17V12C20 10.8954 19.1046 10 18 10H13Z" fill="#9197BA"/>
<path d="M7.5 -1C5.84315 -1 4.5 0.343146 4.5 2H6.5C6.5 1.44772 6.94772 1 7.5 1V-1ZM12.5 -1H7.5V1H12.5V-1ZM15.5 2C15.5 0.343146 14.1569 -1 12.5 -1V1C13.0523 1 13.5 1.44772 13.5 2H15.5ZM15.5 7V2H13.5V7H15.5ZM12.5 10C14.1569 10 15.5 8.65685 15.5 7H13.5C13.5 7.55228 13.0523 8 12.5 8V10ZM7.5 10H12.5V8H7.5V10ZM4.5 7C4.5 8.65685 5.84315 10 7.5 10V8C6.94772 8 6.5 7.55228 6.5 7H4.5ZM4.5 2V7H6.5V2H4.5ZM2 9C0.343146 9 -1 10.3431 -1 12H1C1 11.4477 1.44772 11 2 11V9ZM7 9H2V11H7V9ZM10 12C10 10.3431 8.65685 9 7 9V11C7.55228 11 8 11.4477 8 12H10ZM10 17V12H8V17H10ZM7 20C8.65685 20 10 18.6569 10 17H8C8 17.5523 7.55229 18 7 18V20ZM2 20H7V18H2V20ZM-1 17C-1 18.6569 0.343146 20 2 20V18C1.44771 18 1 17.5523 1 17H-1ZM-1 12V17H1V12H-1ZM12 12C12 11.4477 12.4477 11 13 11V9C11.3431 9 10 10.3431 10 12H12ZM12 17V12H10V17H12ZM13 18C12.4477 18 12 17.5523 12 17H10C10 18.6569 11.3431 20 13 20V18ZM18 18H13V20H18V18ZM19 17C19 17.5523 18.5523 18 18 18V20C19.6569 20 21 18.6569 21 17H19ZM19 12V17H21V12H19ZM18 11C18.5523 11 19 11.4477 19 12H21C21 10.3431 19.6569 9 18 9V11ZM13 11H18V9H13V11Z" fill="#9197BA" mask="url(#path-1-inside-1_549_3759)"/>
</svg>
