<svg width="23" height="17" viewBox="0 0 23 17" fill="none" xmlns="http://www.w3.org/2000/svg">
<path d="M1 0C0.447715 0 0 0.447715 0 1C0 1.55228 0.447715 2 1 2V0ZM21.4706 2C22.0229 2 22.4706 1.55228 22.4706 1C22.4706 0.447715 22.0229 0 21.4706 0V2ZM1 2H21.4706V0H1V2Z" fill="white"/>
<path d="M1 7.25C0.447715 7.25 0 7.69772 0 8.25C0 8.80228 0.447715 9.25 1 9.25V7.25ZM21.4706 9.25C22.0229 9.25 22.4706 8.80228 22.4706 8.25C22.4706 7.69772 22.0229 7.25 21.4706 7.25V9.25ZM1 9.25H21.4706V7.25H1V9.25Z" fill="white"/>
<path d="M1 14.5C0.447715 14.5 0 14.9477 0 15.5C0 16.0523 0.447715 16.5 1 16.5V14.5ZM21.4706 16.5C22.0229 16.5 22.4706 16.0523 22.4706 15.5C22.4706 14.9477 22.0229 14.5 21.4706 14.5V16.5ZM1 16.5H21.4706V14.5H1V16.5Z" fill="white"/>
</svg>
