<svg width="24" height="18" viewBox="0 0 24 18" fill="none" xmlns="http://www.w3.org/2000/svg">
<path d="M24 16.3636C24 16.653 23.8851 16.9304 23.6805 17.135C23.4759 17.3396 23.1984 17.4545 22.9091 17.4545H9.81818C9.52886 17.4545 9.25138 17.3396 9.04679 17.135C8.84221 16.9304 8.72727 16.653 8.72727 16.3636C8.72727 14.6277 9.41688 12.9628 10.6444 11.7353C11.8719 10.5078 13.5368 9.81818 15.2727 9.81818H17.4545C19.1905 9.81818 20.8554 10.5078 22.0829 11.7353C23.3104 12.9628 24 14.6277 24 16.3636ZM16.3636 0C15.5006 0 14.6569 0.255923 13.9393 0.735405C13.2217 1.21489 12.6624 1.89639 12.3322 2.69375C12.0019 3.4911 11.9155 4.36848 12.0838 5.21494C12.2522 6.0614 12.6678 6.83893 13.2781 7.44919C13.8883 8.05946 14.6659 8.47506 15.5123 8.64343C16.3588 8.8118 17.2362 8.72538 18.0335 8.39511C18.8309 8.06484 19.5124 7.50554 19.9919 6.78794C20.4713 6.07035 20.7273 5.22668 20.7273 4.36364C20.7273 3.20633 20.2675 2.09642 19.4492 1.27808C18.6309 0.459739 17.5209 0 16.3636 0ZM6.54545 0C5.68241 0 4.83874 0.255923 4.12115 0.735405C3.40355 1.21489 2.84425 1.89639 2.51398 2.69375C2.18371 3.4911 2.09729 4.36848 2.26566 5.21494C2.43404 6.0614 2.84963 6.83893 3.4599 7.44919C4.07016 8.05946 4.84769 8.47506 5.69415 8.64343C6.54061 8.8118 7.418 8.72538 8.21535 8.39511C9.0127 8.06484 9.6942 7.50554 10.1737 6.78794C10.6532 6.07035 10.9091 5.22668 10.9091 4.36364C10.9091 3.20633 10.4494 2.09642 9.63101 1.27808C8.81267 0.459739 7.70276 0 6.54545 0ZM6.54545 16.3636C6.54383 15.2178 6.76959 14.0829 7.20965 13.0249C7.64971 11.9669 8.29532 11.0067 9.10909 10.2C8.44313 9.94857 7.7373 9.81923 7.02545 9.81818H6.06545C4.45768 9.82107 2.91658 10.461 1.77972 11.5979C0.642847 12.7348 0.0028839 14.2759 0 15.8836V16.3636C0 16.653 0.114935 16.9304 0.31952 17.135C0.524105 17.3396 0.801582 17.4545 1.09091 17.4545H6.74182C6.61481 17.1047 6.5484 16.7358 6.54545 16.3636Z" fill="#9197BA"/>
</svg>
