<svg width="50" height="50" viewBox="0 0 50 50" fill="none" xmlns="http://www.w3.org/2000/svg">
<path fill-rule="evenodd" clip-rule="evenodd" d="M24.9199 0.757568C29.427 0.809001 33.4988 1.91673 37.1352 4.08074C40.7282 6.20156 43.7171 9.2087 45.816 12.8146C47.9668 16.4729 49.0679 20.5693 49.1191 25.1039C48.9914 31.3084 47.0345 36.6075 43.2484 41.0015C39.4622 45.3954 34.6131 48.1138 29.5933 49.1559V31.7606H34.3391L35.4124 24.9247H28.2262V20.4473C28.1863 19.5191 28.4798 18.6073 29.0537 17.8767C29.6284 17.1441 30.6404 16.759 32.0898 16.7215H36.4293V10.7334C36.367 10.7134 35.7762 10.6342 34.6568 10.4958C33.3873 10.3472 32.1107 10.2679 30.8326 10.2581C27.9398 10.2715 25.652 11.0874 23.9692 12.7061C22.2863 14.3243 21.4267 16.6655 21.3903 19.7296V24.9247H15.9215V31.7606H21.3903V49.1559C15.2267 48.1138 10.3776 45.3954 6.59143 41.0015C2.80529 36.6075 0.848457 31.3083 0.720703 25.1039C0.771816 20.5691 1.87285 16.4727 4.02379 12.8146C6.12269 9.2087 9.11157 6.20156 12.7046 4.08074C16.3409 1.91714 20.4127 0.809417 24.9199 0.757568Z" fill="#CCD3FF"/>
</svg>
