<svg width="42" height="42" viewBox="0 0 42 42" fill="none" xmlns="http://www.w3.org/2000/svg">
<g opacity="0.8" clip-path="url(#clip0_1092_3736)">
<path d="M40.7695 10.5437H1.23047C0.550922 10.5437 0 11.0946 0 11.7742V40.7695C0 41.4491 0.550922 42 1.23047 42H40.7695C41.4491 42 42 41.4491 42 40.7695V11.7742C42 11.0946 41.4491 10.5437 40.7695 10.5437ZM27.9429 27.2957L18.0581 33.8856C17.8522 34.0228 17.6142 34.0922 17.3755 34.0922C17.1764 34.0922 16.9769 34.044 16.795 33.9467C16.3949 33.7325 16.1451 33.3157 16.1451 32.8618V19.6821C16.1451 19.2283 16.3949 18.8113 16.795 18.5972C17.1952 18.383 17.6807 18.4066 18.0581 18.6582L27.9429 25.2481C28.2852 25.4763 28.4908 25.8605 28.4908 26.2719C28.4908 26.6833 28.2852 27.0676 27.9429 27.2957Z" fill="#CCD3FF"/>
<path d="M36.8148 5.27197H5.18359C4.50405 5.27197 3.95312 5.82289 3.95312 6.50244C3.95312 7.18199 4.50405 7.73291 5.18359 7.73291H36.8148C37.4944 7.73291 38.0453 7.18199 38.0453 6.50244C38.0453 5.82289 37.4944 5.27197 36.8148 5.27197Z" fill="#CCD3FF"/>
<path d="M32.8621 0H9.13867C8.45913 0 7.9082 0.550922 7.9082 1.23047C7.9082 1.91002 8.45913 2.46094 9.13867 2.46094H32.8621C33.5417 2.46094 34.0926 1.91002 34.0926 1.23047C34.0926 0.550922 33.5417 0 32.8621 0Z" fill="#CCD3FF"/>
</g>
<defs>
<clipPath id="clip0_1092_3736">
<rect width="42" height="42" fill="white"/>
</clipPath>
</defs>
</svg>
