<svg width="36" height="36" viewBox="0 0 36 36" fill="none" xmlns="http://www.w3.org/2000/svg">
<path d="M31.7997 13.8C31.8007 13.2127 31.5832 12.6459 31.1895 12.21C30.9786 11.9754 30.8361 11.6875 30.7773 11.3776C30.7184 11.0677 30.7457 10.7476 30.8559 10.452C31.0675 9.88562 31.0558 9.25994 30.8232 8.70184C30.5906 8.14375 30.1544 7.69501 29.6031 7.44662C29.2635 7.29702 28.9745 7.05221 28.7711 6.74181C28.5678 6.43141 28.4587 6.06872 28.4571 5.69762C28.449 5.09316 28.2116 4.51436 27.7928 4.07836C27.3741 3.64236 26.8054 3.38173 26.2017 3.34922C25.8865 3.33226 25.582 3.22921 25.3212 3.05129C25.0604 2.87336 24.8535 2.62736 24.7227 2.34002C24.4708 1.78743 24.0174 1.35196 23.455 1.12265C22.8927 0.893346 22.264 0.887539 21.6975 1.10642C21.3563 1.24098 20.9832 1.27292 20.6241 1.1983C20.265 1.12369 19.9355 0.945769 19.6761 0.686419C19.2439 0.2599 18.6652 0.014444 18.0582 0.000170864C17.4511 -0.0141023 16.8615 0.203884 16.4097 0.609619C16.175 0.820489 15.887 0.963061 15.577 1.02187C15.267 1.08068 14.9468 1.05348 14.6511 0.943219C14.0848 0.731627 13.4592 0.743343 12.9012 0.97599C12.3432 1.20864 11.8946 1.6448 11.6463 2.19602C11.497 2.53537 11.2526 2.82423 10.9426 3.02769C10.6327 3.23116 10.2705 3.34054 9.89973 3.34262C9.29527 3.35072 8.71646 3.58817 8.28046 4.0069C7.84446 4.42564 7.58383 4.99438 7.55133 5.59802C7.53468 5.91402 7.43153 6.21937 7.25313 6.48073C7.07473 6.74208 6.82795 6.94939 6.53973 7.08002C5.98714 7.33191 5.55166 7.78539 5.32236 8.34772C5.09305 8.91005 5.08725 9.53875 5.30613 10.1052C5.44069 10.4464 5.47263 10.8195 5.39801 11.1786C5.32339 11.5378 5.14548 11.8673 4.88613 12.1266C4.45961 12.5588 4.21415 13.1375 4.19988 13.7446C4.1856 14.3516 4.40359 14.9412 4.80933 15.393C5.0202 15.6276 5.16279 15.9155 5.2216 16.2254C5.28041 16.5354 5.2532 16.8555 5.14293 17.151C4.93131 17.7174 4.943 18.3431 5.17565 18.9012C5.40829 19.4593 5.84446 19.908 6.39573 20.1564C6.73534 20.306 7.02432 20.5508 7.2277 20.8612C7.43109 21.1716 7.54016 21.5343 7.54173 21.9054C7.54983 22.5099 7.78728 23.0887 8.20601 23.5247C8.62475 23.9607 9.19349 24.2213 9.79713 24.2538C10.1127 24.2699 10.4177 24.3722 10.6791 24.5496C10.9406 24.727 11.1483 24.9727 11.2797 25.26C11.5316 25.8126 11.9851 26.2481 12.5474 26.4774C13.1098 26.7067 13.7385 26.7125 14.3049 26.4936C14.6461 26.3591 15.0192 26.3271 15.3784 26.4017C15.7375 26.4764 16.067 26.6543 16.3263 26.9136C16.7585 27.3401 17.3372 27.5856 17.9443 27.5999C18.5513 27.6141 19.141 27.3962 19.5927 26.9904C19.8275 26.7795 20.1155 26.637 20.4255 26.5782C20.7355 26.5194 21.0557 26.5466 21.3513 26.6568C21.9176 26.8684 22.5432 26.8567 23.1012 26.624C23.6592 26.3914 24.1079 25.9552 24.3561 25.404C24.5057 25.0644 24.7505 24.7754 25.0609 24.572C25.3713 24.3687 25.734 24.2596 26.1051 24.258C26.7096 24.2499 27.2884 24.0125 27.7244 23.5937C28.1604 23.175 28.421 22.6063 28.4535 22.0026C28.4701 21.6876 28.5727 21.3832 28.75 21.1223C28.9274 20.8615 29.1729 20.6542 29.4597 20.523C30.0123 20.2711 30.4478 19.8176 30.6771 19.2553C30.9064 18.693 30.9122 18.0643 30.6933 17.4978C30.5588 17.1566 30.5268 16.7835 30.6014 16.4244C30.6761 16.0653 30.854 15.7358 31.1133 15.4764C31.5542 15.03 31.801 14.4275 31.7997 13.8V13.8Z" fill="#FAA251"/>
<path d="M18.0008 23.9999C23.6341 23.9999 28.2008 19.4332 28.2008 13.7999C28.2008 8.16655 23.6341 3.59985 18.0008 3.59985C12.3675 3.59985 7.80078 8.16655 7.80078 13.7999C7.80078 19.4332 12.3675 23.9999 18.0008 23.9999Z" fill="#C47F40"/>
<path fill-rule="evenodd" clip-rule="evenodd" d="M24.6 34.2L24.6 34.2L18 27.6C18.5865 27.6004 19.1523 27.383 19.5876 26.9898C19.8223 26.779 20.1103 26.6364 20.4203 26.5776C20.7304 26.5188 21.0505 26.546 21.3462 26.6562C21.9125 26.8678 22.5381 26.8561 23.0961 26.6235C23.6541 26.3908 24.1027 25.9547 24.351 25.4034C24.5006 25.0638 24.7454 24.7748 25.0558 24.5715C25.3662 24.3681 25.7289 24.259 26.1 24.2574C26.7049 24.2504 27.2845 24.0137 27.7213 23.5952C28.1582 23.1768 28.4196 22.6079 28.4526 22.0038C28.4694 21.6888 28.5722 21.3844 28.7498 21.1237C28.9274 20.8629 29.173 20.6558 29.46 20.5248C29.608 20.4577 29.7487 20.3757 29.88 20.28L34.2 24.6L34.2 24.6L36 26.4L28.2 28.2L26.4 36L24.6 34.2Z" fill="#E36E54"/>
<path fill-rule="evenodd" clip-rule="evenodd" d="M11.4 34.2L18 27.6C17.3736 27.6005 16.7723 27.3538 16.3266 26.9136C16.0672 26.6543 15.7377 26.4764 15.3786 26.4017C15.0195 26.3271 14.6464 26.3591 14.3052 26.4936C13.7387 26.7125 13.11 26.7067 12.5477 26.4774C11.9854 26.2481 11.5319 25.8126 11.28 25.26C11.1492 24.9722 10.9418 24.7259 10.6806 24.5478C10.4194 24.3698 10.1143 24.2668 9.7986 24.2502C9.19496 24.2177 8.62622 23.9571 8.20749 23.5211C7.78875 23.0851 7.5513 22.5063 7.5432 21.9018C7.54164 21.5307 7.43256 21.168 7.22918 20.8576C7.02579 20.5472 6.73681 20.3024 6.3972 20.1528C6.363 20.1378 6.3294 20.1216 6.2958 20.1042L1.80005 24.6L1.8 24.6L0 26.4L7.8 28.2L9.6 36L11.4 34.2L11.4 34.2Z" fill="#E36E54"/>
<path d="M17.8729 19.5942C17.0089 19.5942 16.2036 19.4449 15.4569 19.1462C14.7209 18.8369 14.1022 18.4049 13.6009 17.8502L15.0089 16.5382C15.4356 16.9969 15.8569 17.3169 16.2729 17.4982C16.6996 17.6689 17.2222 17.7542 17.8409 17.7542C18.2889 17.7542 18.6782 17.6902 19.0089 17.5622C19.3502 17.4235 19.6116 17.2315 19.7929 16.9862C19.9849 16.7409 20.0809 16.4582 20.0809 16.1382C20.0809 15.8395 20.0062 15.5835 19.8569 15.3702C19.7076 15.1569 19.5049 14.9915 19.2489 14.8742C18.9929 14.7462 18.6889 14.6822 18.3369 14.6822H16.9289V12.9542H18.1449C18.6462 12.9542 19.0409 12.8262 19.3289 12.5702C19.6169 12.3035 19.7609 11.9409 19.7609 11.4822C19.7609 11.1835 19.6756 10.9169 19.5049 10.6822C19.3342 10.4369 19.0996 10.2449 18.8009 10.1062C18.5129 9.96755 18.1822 9.89821 17.8089 9.89821C17.2542 9.89821 16.7742 9.99421 16.3689 10.1862C15.9742 10.3782 15.5582 10.7195 15.1209 11.2102L13.6969 9.89821C14.2196 9.31155 14.8436 8.85821 15.5689 8.53821C16.3049 8.20755 17.0782 8.04221 17.8889 8.04221C18.6676 8.04221 19.3556 8.18088 19.9529 8.45821C20.5502 8.72488 21.0196 9.09821 21.3609 9.57821C21.7022 10.0582 21.8729 10.6075 21.8729 11.2262C21.8729 11.8235 21.6756 12.3569 21.2809 12.8262C20.8862 13.2849 20.3742 13.6049 19.7449 13.7862C20.4916 13.9355 21.0836 14.2342 21.5209 14.6822C21.9689 15.1302 22.1929 15.6689 22.1929 16.2982C22.1929 16.9275 22.0062 17.4929 21.6329 17.9942C21.2596 18.4955 20.7476 18.8902 20.0969 19.1782C19.4569 19.4555 18.7156 19.5942 17.8729 19.5942Z" fill="white"/>
</svg>
